<?xml version="1.0" encoding="utf-8"?>
<!-- Svg Vector Icons : http://www.onlinewebfonts.com/icon -->
<!DOCTYPE svg PUBLIC "-//W3C//DTD SVG 1.1//EN" "http://www.w3.org/Graphics/SVG/1.1/DTD/svg11.dtd">

<svg width="35px" height="30px" viewBox="-297 1366 35 30" version="1.1" xmlns="http://www.w3.org/2000/svg" xmlns:xlink="http://www.w3.org/1999/xlink">
    <!-- Generator: Sketch 40 (33762) - http://www.bohemiancoding.com/sketch -->
    <desc>Created with Sketch.</desc>
    <defs></defs>
    <path d="M-279.725096,1366 C-289.265074,1366 -297,1372.76447 -297,1381.10061 C-297,1387.77193 -292.050211,1393.42752 -285.186081,1395.42591 C-285.076791,1395.44694 -284.985128,1395.45295 -284.893465,1395.45295 C-284.251826,1395.45295 -284.005041,1395.05328 -284.005041,1394.70468 C-284.005041,1394.34407 -284.019143,1393.39747 -284.02972,1392.13533 C-284.67841,1392.26154 -285.256591,1392.31263 -285.771312,1392.31263 C-289.09585,1392.31263 -289.850305,1390.10989 -289.850305,1390.10989 C-290.636489,1388.36694 -291.771697,1387.90115 -291.771697,1387.90115 C-293.277082,1386.99962 -291.778748,1386.97558 -291.662407,1386.97558 L-291.655356,1386.97558 C-289.920815,1387.1078 -289.011238,1388.54123 -289.011238,1388.54123 C-288.147493,1389.83042 -286.991132,1390.19103 -285.958163,1390.19103 C-285.1473,1390.19103 -284.413998,1389.96865 -283.983889,1389.79736 C-283.828767,1388.82371 -283.38103,1388.15958 -282.887461,1387.77794 C-286.719669,1387.39629 -290.752831,1386.10109 -290.752831,1380.31628 C-290.752831,1378.66648 -290.082987,1377.31719 -288.979509,1376.26541 C-289.155783,1375.88376 -289.751591,1374.34515 -288.810285,1372.26863 C-288.810285,1372.26863 -288.686893,1372.23558 -288.426007,1372.23558 C-287.801995,1372.23558 -286.388273,1372.43992 -284.061449,1373.81926 C-282.679457,1373.48269 -281.209327,1373.32042 -279.735672,1373.31441 C-278.269068,1373.32042 -276.788362,1373.4857 -275.409895,1373.81926 C-273.079546,1372.43992 -271.66935,1372.23558 -271.045338,1372.23558 C-270.784452,1372.23558 -270.661059,1372.26863 -270.661059,1372.26863 C-269.719753,1374.34515 -270.315561,1375.88376 -270.491836,1376.26541 C-269.388357,1377.3232 -268.718514,1378.67249 -268.718514,1380.31628 C-268.718514,1386.11311 -272.758726,1387.39028 -276.608562,1387.76291 C-275.991601,1388.2287 -275.434574,1389.15127 -275.434574,1390.55765 C-275.434574,1392.57708 -275.459252,1394.20584 -275.459252,1394.69867 C-275.459252,1395.05328 -275.219519,1395.45596 -274.581405,1395.45596 C-274.489742,1395.45596 -274.380452,1395.44995 -274.271162,1395.42891 C-267.39293,1393.42451 -262.450192,1387.76592 -262.450192,1381.10061 C-262.450192,1372.76447 -270.185118,1366 -279.725096,1366 L-279.725096,1366 Z" id="Shape" stroke="none" fill="#000000" fill-rule="evenodd" transform="translate(-279.725096, 1380.727979) scale(-1, 1) translate(279.725096, -1380.727979) "></path>
</svg>
