<?xml version="1.0" encoding="utf-8"?>
<!-- Svg Vector Icons : http://www.onlinewebfonts.com/icon -->
<!DOCTYPE svg PUBLIC "-//W3C//DTD SVG 1.1//EN" "http://www.w3.org/Graphics/SVG/1.1/DTD/svg11.dtd">

<svg width="35px" height="30px" viewBox="0 0 35 30" version="1.1" xmlns="http://www.w3.org/2000/svg" xmlns:xlink="http://www.w3.org/1999/xlink">
    <desc>Created with Sketch.</desc>
    <defs></defs>
    <path d="M17.2749042,0 C7.73492649,0 0,6.76447288 0,15.1006114 C0,21.7719263 4.94978887,27.4275184 11.8139192,29.4259078 C11.9232094,29.4469435 12.0148721,29.4529537 12.1065349,29.4529537 C12.7481742,29.4529537 12.9949585,29.0532758 12.9949585,28.7046846 C12.9949585,28.344073 12.9808566,27.3974675 12.9702801,26.1353268 C12.3215898,26.2615409 11.7434094,26.3126275 11.2286877,26.3126275 C7.90415004,26.3126275 7.14969504,24.1098916 7.14969504,24.1098916 C6.36351063,22.3669354 5.22830264,21.9011454 5.22830264,21.9011454 C3.72291813,20.9996164 5.22125165,20.9755756 5.33759285,20.9755756 L5.34464383,20.9755756 C7.07918523,21.1077999 7.98876182,22.541231 7.98876182,22.541231 C8.85250702,23.8304176 10.008868,24.1910292 11.0418367,24.1910292 C11.8526996,24.1910292 12.5860016,23.968652 13.0161115,23.7973615 C13.1712331,22.8237101 13.6189704,22.1595838 14.1125391,21.7779365 C10.2803307,21.3962892 6.24716943,20.1010925 6.24716943,14.3162811 C6.24716943,12.666483 6.91701266,11.3171945 8.02049123,10.2654106 C7.8442167,9.88376335 7.24840878,8.34515379 8.18971478,6.26863191 C8.18971478,6.26863191 8.31310696,6.23557585 8.57399326,6.23557585 C9.19800511,6.23557585 10.6117269,6.43992243 12.9385507,7.81926186 C14.320543,7.48269102 15.7906726,7.32041579 17.2643277,7.31440559 C18.7309318,7.32041579 20.2116379,7.48569611 21.5901047,7.81926186 C23.9204541,6.43992243 25.3306503,6.23557585 25.9546622,6.23557585 C26.2155485,6.23557585 26.3389407,6.26863191 26.3389407,6.26863191 C27.2802467,8.34515379 26.6844387,9.88376335 26.5081642,10.2654106 C27.6116428,11.3232047 28.281486,12.6724932 28.281486,14.3162811 C28.281486,20.1131128 24.2412737,21.390279 20.3914379,21.762911 C21.0083988,22.228701 21.5654263,23.1512657 21.5654263,24.557651 C21.5654263,26.577076 21.5407479,28.2058385 21.5407479,28.6986744 C21.5407479,29.0532758 21.7804812,29.4559588 22.4185951,29.4559588 C22.5102578,29.4559588 22.619548,29.4499486 22.7288382,29.4289129 C29.6070705,27.4245133 34.5498084,21.7659161 34.5498084,15.1006114 C34.5498084,6.76447288 26.8148819,0 17.2749042,0 L17.2749042,0 Z" id="Shape" stroke="none" fill="#000000" fill-rule="evenodd"></path>
    <path d="M17.2749042,0 C7.73492649,0 0,6.76447288 0,15.1006114 C0,21.7719263 4.94978887,27.4275184 11.8139192,29.4259078 C11.9232094,29.4469435 12.0148721,29.4529537 12.1065349,29.4529537 C12.7481742,29.4529537 12.9949585,29.0532758 12.9949585,28.7046846 C12.9949585,28.344073 12.9808566,27.3974675 12.9702801,26.1353268 C12.3215898,26.2615409 11.7434094,26.3126275 11.2286877,26.3126275 C7.90415004,26.3126275 7.14969504,24.1098916 7.14969504,24.1098916 C6.36351063,22.3669354 5.22830264,21.9011454 5.22830264,21.9011454 C3.72291813,20.9996164 5.22125165,20.9755756 5.33759285,20.9755756 L5.34464383,20.9755756 C7.07918523,21.1077999 7.98876182,22.541231 7.98876182,22.541231 C8.85250702,23.8304176 10.008868,24.1910292 11.0418367,24.1910292 C11.8526996,24.1910292 12.5860016,23.968652 13.0161115,23.7973615 C13.1712331,22.8237101 13.6189704,22.1595838 14.1125391,21.7779365 C10.2803307,21.3962892 6.24716943,20.1010925 6.24716943,14.3162811 C6.24716943,12.666483 6.91701266,11.3171945 8.02049123,10.2654106 C7.8442167,9.88376335 7.24840878,8.34515379 8.18971478,6.26863191 C8.18971478,6.26863191 8.31310696,6.23557585 8.57399326,6.23557585 C9.19800511,6.23557585 10.6117269,6.43992243 12.9385507,7.81926186 C14.320543,7.48269102 15.7906726,7.32041579 17.2643277,7.31440559 C18.7309318,7.32041579 20.2116379,7.48569611 21.5901047,7.81926186 C23.9204541,6.43992243 25.3306503,6.23557585 25.9546622,6.23557585 C26.2155485,6.23557585 26.3389407,6.26863191 26.3389407,6.26863191 C27.2802467,8.34515379 26.6844387,9.88376335 26.5081642,10.2654106 C27.6116428,11.3232047 28.281486,12.6724932 28.281486,14.3162811 C28.281486,20.1131128 24.2412737,21.390279 20.3914379,21.762911 C21.0083988,22.228701 21.5654263,23.1512657 21.5654263,24.557651 C21.5654263,26.577076 21.5407479,28.2058385 21.5407479,28.6986744 C21.5407479,29.0532758 21.7804812,29.4559588 22.4185951,29.4559588 C22.5102578,29.4559588 22.619548,29.4499486 22.7288382,29.4289129 C29.6070705,27.4245133 34.5498084,21.7659161 34.5498084,15.1006114 C34.5498084,6.76447288 26.8148819,0 17.2749042,0 L17.2749042,0 Z" id="Shape" stroke="none" fill="#000000" fill-rule="evenodd"></path>
</svg>
